<svg xmlns="http://www.w3.org/2000/svg" width="24" height="351" viewBox="0 0 24 351" fill="none">
  <path d="M237.823 0H24C10.7452 0 0 10.7452 0 24V327C0 340.255 10.7452 351 24 351H264C277.255 351 288 340.255 288 327V59.8113C288 54.7194 286.38 49.7594 283.376 45.6486L257.199 9.83723C252.68 3.65468 245.482 0 237.823 0Z" fill="#0E0C15"/>
  <path d="M24 0.75H237.823C245.242 0.75 252.216 4.29047 256.594 10.2798L282.77 46.0912C285.681 50.0735 287.25 54.8785 287.25 59.8113V327C287.25 339.841 276.841 350.25 264 350.25H24C11.1594 350.25 0.75 339.841 0.75 327V24C0.75 11.1594 11.1594 0.75 24 0.75Z" stroke="white" stroke-opacity="0.15" stroke-width="1.5"/>
  <path d="M24 0.75H237.823C245.242 0.75 252.216 4.29047 256.594 10.2798L282.77 46.0912C285.681 50.0735 287.25 54.8785 287.25 59.8113V327C287.25 339.841 276.841 350.25 264 350.25H24C11.1594 350.25 0.75 339.841 0.75 327V24C0.75 11.1594 11.1594 0.75 24 0.75Z" stroke="url(#paint0_linear_434_131)" stroke-opacity="0.85" stroke-width="1.5"/>
  <defs>
    <linearGradient id="paint0_linear_434_131" x1="144" y1="0" x2="144" y2="351" gradientUnits="userSpaceOnUse">
      <stop stop-color="#EEB37D"/>
      <stop offset="0.562842" stop-color="#FF9533" stop-opacity="0"/>
    </linearGradient>
  </defs>
</svg>